<svg xmlns="http://www.w3.org/2000/svg" viewBox="0 0 596.0 842.0">
<rect width="100%" height="100%" fill="white"/>
<rect x="0.0" y="-0.25" width="595.5" height="842.25" fill="none" stroke="black" stroke-width="0.5"/>
<rect x="72.0" y="757.35" width="99.58000000000001" height="12.290000000000006" fill="none" stroke="green" stroke-width="0.25"/>
<rect x="171.57" y="757.35" width="45.23000000000002" height="12.290000000000006" fill="none" stroke="green" stroke-width="0.25"/>
<rect x="216.79" y="757.35" width="300.30000000000007" height="12.290000000000006" fill="none" stroke="green" stroke-width="0.25"/>
<rect x="72.0" y="742.8" width="438.12" height="12.290000000000006" fill="none" stroke="green" stroke-width="0.25"/>
<rect x="72.0" y="728.26" width="302.44" height="12.289999999999992" fill="none" stroke="green" stroke-width="0.25"/>
<rect x="374.44" y="728.26" width="45.22000000000003" height="12.289999999999992" fill="none" stroke="green" stroke-width="0.25"/>
<rect x="419.65" y="728.26" width="104.49000000000001" height="12.289999999999992" fill="none" stroke="green" stroke-width="0.25"/>
<rect x="72.0" y="713.71" width="451.54999999999995" height="12.289999999999992" fill="none" stroke="green" stroke-width="0.25"/>
<rect x="72.0" y="699.17" width="450.36" height="12.29000000000002" fill="none" stroke="green" stroke-width="0.25"/>
<rect x="72.0" y="684.62" width="379.07" height="12.289999999999992" fill="none" stroke="green" stroke-width="0.25"/>
<rect x="125.43" y="652.8199999999999" width="47.650000000000006" height="12.29000000000002" fill="none" stroke="green" stroke-width="0.25"/>
<rect x="173.07" y="652.8199999999999" width="3.0600000000000023" height="12.29000000000002" fill="none" stroke="green" stroke-width="0.25"/>
<rect x="337.34" y="652.8199999999999" width="51.33000000000004" height="12.29000000000002" fill="none" stroke="green" stroke-width="0.25"/>
<rect x="388.66" y="652.8199999999999" width="3.0600000000000023" height="12.29000000000002" fill="none" stroke="green" stroke-width="0.25"/>
<rect x="77.25" y="625.0699999999999" width="64.53" height="12.29000000000002" fill="none" stroke="green" stroke-width="0.25"/>
<rect x="141.78" y="625.0699999999999" width="3.0600000000000023" height="12.29000000000002" fill="none" stroke="green" stroke-width="0.25"/>
<rect x="231.75" y="625.0699999999999" width="227.27999999999997" height="12.29000000000002" fill="none" stroke="green" stroke-width="0.25"/>
<rect x="77.25" y="597.3199999999999" width="82.47999999999999" height="12.29000000000002" fill="none" stroke="green" stroke-width="0.25"/>
<rect x="159.72" y="597.3199999999999" width="3.0600000000000023" height="12.29000000000002" fill="none" stroke="green" stroke-width="0.25"/>
<rect x="231.75" y="597.3199999999999" width="135.04000000000002" height="12.29000000000002" fill="none" stroke="green" stroke-width="0.25"/>
<rect x="77.25" y="569.5699999999999" width="37.879999999999995" height="12.29000000000002" fill="none" stroke="green" stroke-width="0.25"/>
<rect x="115.13" y="569.5699999999999" width="3.0600000000000023" height="12.29000000000002" fill="none" stroke="green" stroke-width="0.25"/>
<rect x="231.75" y="569.5699999999999" width="219.31" height="12.29000000000002" fill="none" stroke="green" stroke-width="0.25"/>
<rect x="77.25" y="541.8199999999999" width="29.92" height="12.29000000000002" fill="none" stroke="green" stroke-width="0.25"/>
<rect x="107.17" y="541.8199999999999" width="3.0600000000000023" height="12.29000000000002" fill="none" stroke="green" stroke-width="0.25"/>
<rect x="231.75" y="541.8199999999999" width="124.66000000000003" height="12.29000000000002" fill="none" stroke="green" stroke-width="0.25"/>
<rect x="77.25" y="514.0699999999999" width="47.650000000000006" height="12.29000000000002" fill="none" stroke="green" stroke-width="0.25"/>
<rect x="124.9" y="514.0699999999999" width="3.049999999999997" height="12.29000000000002" fill="none" stroke="green" stroke-width="0.25"/>
<rect x="231.75" y="514.0699999999999" width="97.13999999999999" height="12.29000000000002" fill="none" stroke="green" stroke-width="0.25"/>
<rect x="77.25" y="486.32" width="97.74000000000001" height="12.29000000000002" fill="none" stroke="green" stroke-width="0.25"/>
<rect x="174.98" y="486.32" width="3.0600000000000023" height="12.29000000000002" fill="none" stroke="green" stroke-width="0.25"/>
<rect x="231.75" y="486.32" width="125.24000000000001" height="12.29000000000002" fill="none" stroke="green" stroke-width="0.25"/>
<rect x="77.25" y="458.57" width="82.87" height="12.29000000000002" fill="none" stroke="green" stroke-width="0.25"/>
<rect x="160.11" y="458.57" width="3.059999999999974" height="12.29000000000002" fill="none" stroke="green" stroke-width="0.25"/>
<rect x="231.75" y="458.57" width="212.61" height="12.29000000000002" fill="none" stroke="green" stroke-width="0.25"/>
<rect x="77.25" y="430.82" width="124.0" height="12.29000000000002" fill="none" stroke="green" stroke-width="0.25"/>
<rect x="201.24" y="430.82" width="3.0600000000000023" height="12.29000000000002" fill="none" stroke="green" stroke-width="0.25"/>
<rect x="231.75" y="430.82" width="153.93" height="12.29000000000002" fill="none" stroke="green" stroke-width="0.25"/>
<rect x="77.25" y="403.07" width="86.74000000000001" height="12.29000000000002" fill="none" stroke="green" stroke-width="0.25"/>
<rect x="163.99" y="403.07" width="3.049999999999983" height="12.29000000000002" fill="none" stroke="green" stroke-width="0.25"/>
<rect x="231.75" y="403.07" width="194.26999999999998" height="12.29000000000002" fill="none" stroke="green" stroke-width="0.25"/>
<rect x="72.0" y="380.57" width="3.0600000000000023" height="12.29000000000002" fill="none" stroke="green" stroke-width="0.25"/>
<rect x="72.0" y="366.03" width="3.0600000000000023" height="12.29000000000002" fill="none" stroke="green" stroke-width="0.25"/>
<rect x="72.0" y="351.48" width="147.07" height="12.289999999999964" fill="none" stroke="green" stroke-width="0.25"/>
<rect x="315.0" y="105.75" width="3.0600000000000023" height="12.289999999999964" fill="none" stroke="green" stroke-width="0.25"/>
</svg>